<svg width="150" height="45" viewBox="0 0 150 45" fill="none" xmlns="http://www.w3.org/2000/svg">
<g clip-path="url(#clip0_1_2)">
<g clip-path="url(#clip1_1_2)">
<path d="M10.4771 8.36538C11.9084 8.36538 13.1107 7.15385 13.1107 5.71154C13.1107 4.26923 11.9084 3.05769 10.4771 3.05769C9.0458 3.05769 7.84351 4.26923 7.84351 5.71154C7.84351 7.15385 9.0458 8.36538 10.4771 8.36538ZM9.0458 27.1154C9.0458 27.5192 9.38931 27.8654 9.79008 27.8654C10.1908 27.8654 10.5344 27.5192 10.5344 27.1154C10.5344 26.7115 10.1908 26.3654 9.79008 26.3654C9.38931 26.3654 9.0458 26.7115 9.0458 27.1154ZM14.313 11.7115C14.9427 11.7115 15.4008 11.1923 15.4008 10.6154C15.4008 9.98077 14.8855 9.51923 14.313 9.51923C13.6832 9.51923 13.2252 10.0385 13.2252 10.6154C13.2252 11.1923 13.6832 11.7115 14.313 11.7115ZM5.66794 21.6923C7.09924 21.6923 8.30153 20.4808 8.30153 19.0385C8.30153 17.5962 7.09924 16.3846 5.66794 16.3846C4.23664 16.3846 3.03435 17.5962 3.03435 19.0385C3.0916 20.4808 4.23664 21.6923 5.66794 21.6923ZM1.88931 15.4615C2.51908 15.4615 2.9771 14.9423 2.9771 14.3654C2.9771 13.7308 2.46183 13.2692 1.88931 13.2692C1.25954 13.2692 0.801527 13.7885 0.801527 14.3654C0.801527 15 1.25954 15.4615 1.88931 15.4615ZM1.48855 17.8846C1.48855 17.4808 1.14504 17.1346 0.744275 17.1346C0.343512 17.1346 0 17.4808 0 17.8846C0 18.2885 0.343512 18.6346 0.744275 18.6346C1.14504 18.6346 1.48855 18.2885 1.48855 17.8846ZM4.98092 11.6538C6.01145 11.6538 6.81298 10.8462 6.81298 9.80769C6.81298 8.76923 6.01145 7.96154 4.98092 7.96154C3.95038 7.96154 3.14886 8.76923 3.14886 9.80769C3.14886 10.8462 3.95038 11.6538 4.98092 11.6538ZM27.2519 1.5C27.6527 1.5 27.9962 1.15385 27.9962 0.75C27.9962 0.346154 27.6527 0 27.2519 0C26.8511 0 26.5076 0.346154 26.5076 0.75C26.5076 1.15385 26.8511 1.5 27.2519 1.5ZM7.21374 26.8269C7.21374 25.0385 5.78244 23.5962 4.00763 23.5962C2.23283 23.5962 0.801527 25.0385 0.801527 26.8269C0.801527 28.6154 2.23283 30.0577 4.00763 30.0577C5.78244 30.0577 7.21374 28.6154 7.21374 26.8269ZM39.3321 13.2115C40.7634 13.2115 41.9656 12 41.9656 10.5577C41.9656 9.11538 40.7634 7.90385 39.3321 7.90385C37.9008 7.90385 36.6985 9.11538 36.6985 10.5577C36.6985 12 37.8435 13.2115 39.3321 13.2115ZM33.4351 31.4423C33.4351 32.4808 34.2366 33.2885 35.2672 33.2885C36.2977 33.2885 37.0992 32.4808 37.0992 31.4423C37.0992 30.4038 36.2977 29.5962 35.2672 29.5962C34.2366 29.5962 33.4351 30.4038 33.4351 31.4423ZM35.2672 6.86538C36.2977 6.86538 37.0992 6.05769 37.0992 5.01923C37.0992 3.98077 36.2977 3.17308 35.2672 3.17308C34.2366 3.17308 33.4351 3.98077 33.4351 5.01923C33.4351 6.05769 34.2366 6.86538 35.2672 6.86538ZM31.2023 11.6538C32.2328 11.6538 33.0344 10.8462 33.0344 9.80769C33.0344 8.76923 32.2328 7.96154 31.2023 7.96154C30.1718 7.96154 29.3702 8.76923 29.3702 9.80769C29.3702 10.8462 30.1718 11.6538 31.2023 11.6538ZM37.7863 18.1731C37.7863 19.9615 39.2176 21.4038 40.9924 21.4038C42.7672 21.4038 44.1985 19.9615 44.1985 18.1731C44.1985 16.3846 42.7672 14.9423 40.9924 14.9423C39.2176 14.9423 37.7863 16.3846 37.7863 18.1731ZM35.9542 17.8846C35.9542 17.4808 35.6107 17.1346 35.2099 17.1346C34.8092 17.1346 34.4656 17.4808 34.4656 17.8846C34.4656 18.2885 34.8092 18.6346 35.2099 18.6346C35.6107 18.6346 35.9542 18.2885 35.9542 17.8846ZM30.687 2.94231C31.3168 2.94231 31.7748 2.42308 31.7748 1.84615C31.7748 1.26923 31.2595 0.75 30.687 0.75C30.0573 0.75 29.5992 1.26923 29.5992 1.84615C29.5992 2.42308 30.1145 2.94231 30.687 2.94231ZM34.1221 15.4615C34.7519 15.4615 35.2099 14.9423 35.2099 14.3654C35.2099 13.7308 34.6947 13.2692 34.1221 13.2692C33.5496 13.2692 33.0344 13.7885 33.0344 14.3654C33.0344 15 33.5496 15.4615 34.1221 15.4615ZM11.5649 13.5577C11.5649 12.5192 10.7634 11.7115 9.73282 11.7115C8.70229 11.7115 7.90076 12.5192 7.90076 13.5577C7.90076 14.5962 8.70229 15.4038 9.73282 15.4038C10.7634 15.4038 11.5649 14.5962 11.5649 13.5577ZM30.687 33.2885C30.0573 33.2885 29.5992 33.8077 29.5992 34.3846C29.5992 35.0192 30.1145 35.4808 30.687 35.4808C31.3168 35.4808 31.7748 34.9615 31.7748 34.3846C31.7748 33.8077 31.3168 33.2885 30.687 33.2885ZM26.9656 37.7308C25.1908 37.7308 23.7595 39.1731 23.7595 40.9615C23.7595 42.75 25.1908 44.1923 26.9656 44.1923C28.7405 44.1923 30.1718 42.75 30.1718 40.9615C30.1718 39.1731 28.7405 37.7308 26.9656 37.7308ZM34.5229 36.6346C33.0916 36.6346 31.8893 37.8462 31.8893 39.2885C31.8893 40.7308 33.0916 41.9423 34.5229 41.9423C35.9542 41.9423 37.1565 40.7308 37.1565 39.2885C37.1565 37.8462 35.9542 36.6346 34.5229 36.6346ZM26.5076 35.4808C26.5076 35.8846 26.8511 36.2308 27.2519 36.2308C27.6527 36.2308 27.9962 35.8846 27.9962 35.4808C27.9962 35.0769 27.6527 34.7308 27.2519 34.7308C26.8511 34.7885 26.5076 35.0769 26.5076 35.4808ZM44.2557 26.3654C43.855 26.3654 43.5114 26.7115 43.5114 27.1154C43.5114 27.5192 43.855 27.8654 44.2557 27.8654C44.6565 27.8654 45 27.5192 45 27.1154C45 26.7115 44.5992 26.3654 44.2557 26.3654ZM43.1107 29.5385C42.4809 29.5385 42.0229 30.0577 42.0229 30.6346C42.0229 31.2692 42.5382 31.7308 43.1107 31.7308C43.7405 31.7308 44.1985 31.2115 44.1985 30.6346C44.1985 30 43.7405 29.5385 43.1107 29.5385ZM25.7634 8.36538C27.1947 8.36538 28.3969 7.15385 28.3969 5.71154C28.3969 4.26923 27.1947 3.05769 25.7634 3.05769C24.3321 3.05769 23.1298 4.26923 23.1298 5.71154C23.1298 7.15385 24.3321 8.36538 25.7634 8.36538ZM39.3321 23.3077C37.9008 23.3077 36.6985 24.5192 36.6985 25.9615C36.6985 27.4038 37.9008 28.6154 39.3321 28.6154C40.7634 28.6154 41.9656 27.4038 41.9656 25.9615C41.9084 24.5192 40.7634 23.3077 39.3321 23.3077ZM5.66794 31.7885C4.23664 31.7885 3.03435 33 3.03435 34.4423C3.03435 35.8846 4.23664 37.0962 5.66794 37.0962C7.09924 37.0962 8.30153 35.8846 8.30153 34.4423C8.30153 33 7.15649 31.7885 5.66794 31.7885ZM40.0191 33.3462C38.9885 33.3462 38.187 34.1538 38.187 35.1923C38.187 36.2308 38.9885 37.0385 40.0191 37.0385C41.0496 37.0385 41.8511 36.2308 41.8511 35.1923C41.8511 34.1538 41.0496 33.3462 40.0191 33.3462ZM10.8779 29.5385C10.2481 29.5385 9.79008 30.0577 9.79008 30.6346C9.79008 31.2692 10.3053 31.7308 10.8779 31.7308C11.4504 31.7308 11.9656 31.2115 11.9656 30.6346C11.9656 30 11.4504 29.5385 10.8779 29.5385ZM13.7977 33.3462C12.7672 33.3462 11.9656 34.1538 11.9656 35.1923C11.9656 36.2308 12.7672 37.0385 13.7977 37.0385C14.8282 37.0385 15.6298 36.2308 15.6298 35.1923C15.6298 34.1538 14.8282 33.3462 13.7977 33.3462ZM14.313 42.0577C13.6832 42.0577 13.2252 42.5769 13.2252 43.1538C13.2252 43.7308 13.7405 44.25 14.313 44.25C14.9427 44.25 15.4008 43.7308 15.4008 43.1538C15.4008 42.5769 14.8855 42.0577 14.313 42.0577ZM9.73282 38.1346C8.70229 38.1346 7.90076 38.9423 7.90076 39.9808C7.90076 41.0192 8.70229 41.8269 9.73282 41.8269C10.7634 41.8269 11.5649 41.0192 11.5649 39.9808C11.5649 38.9423 10.7634 38.1346 9.73282 38.1346ZM17.0611 9.51923C17.0611 9.92308 17.4046 10.2692 17.8053 10.2692C18.2061 10.2692 18.5496 9.92308 18.5496 9.51923C18.5496 9.11538 18.2061 8.76923 17.8053 8.76923C17.3473 8.76923 17.0611 9.11538 17.0611 9.51923ZM21.2405 3.98077C21.2405 2.19231 19.8092 0.75 18.0344 0.75C16.2595 0.75 14.8282 2.19231 14.8282 3.98077C14.8282 5.76923 16.2595 7.21154 18.0344 7.21154C19.8092 7.26923 21.2405 5.82692 21.2405 3.98077ZM17.7481 43.5C17.3473 43.5 17.0038 43.8462 17.0038 44.25C17.0038 44.6538 17.3473 45 17.7481 45C18.1489 45 18.4924 44.6538 18.4924 44.25C18.4924 43.8462 18.1489 43.5 17.7481 43.5ZM19.2366 36.6346C17.8053 36.6346 16.6031 37.8462 16.6031 39.2885C16.6031 40.7308 17.8053 41.9423 19.2366 41.9423C20.6679 41.9423 21.8702 40.7308 21.8702 39.2885C21.8702 37.8462 20.6679 36.6346 19.2366 36.6346Z" fill="#1C5C7E"/>
</g>
<path d="M53.3537 27.4489C52.9825 27.4489 52.7872 27.4234 52.4356 27.2702C52.0449 27.2191 51.6543 26.8872 51.3808 26.5298C50.7948 26.0957 50.326 24.9723 50.1892 24.1553C50.1111 23.8234 50.0525 23.5426 50.033 23.3128C49.9744 22.8787 49.9939 22.4957 50.0916 22.1894C50.0916 22.0617 50.1111 22.0106 50.1697 21.9851C50.1892 21.934 50.2283 21.883 50.326 21.8319C50.4041 21.8064 50.4627 21.7809 50.5213 21.7809C50.5799 21.7809 50.619 21.8064 50.6385 21.8319C50.7362 21.9596 50.7362 22.1383 50.6385 22.3426C50.6385 22.3936 50.6385 22.4191 50.619 22.4447C50.5799 22.9809 50.619 23.466 50.7362 23.9255C50.8338 24.4106 50.9901 24.8447 51.205 25.2787C51.3026 25.3553 51.3808 25.4574 51.4589 25.5596C51.537 25.6872 51.6152 25.7894 51.6738 25.917L52.2598 26.4277C52.4747 26.4277 52.6505 26.4532 52.8067 26.5298C52.963 26.6064 53.1583 26.6319 53.3732 26.6319C53.5881 26.6319 53.9201 26.5298 54.1155 26.3766L54.3108 26.2745L54.4866 26.1979L54.6429 25.9936L54.8187 25.7894L55.1312 25.3809C55.1898 25.2021 55.2289 25.0489 55.2484 24.9213C55.268 24.7936 55.307 24.666 55.3656 24.5128C55.3852 24.3851 55.3852 24.2574 55.3852 24.1298L55.3461 23.7723C55.3266 23.5426 55.2875 23.3128 55.1898 23.0574L55.0336 22.8277C54.682 22.3681 54.2522 22.1128 53.8225 21.8574C53.6076 21.7553 53.3732 21.6532 53.1583 21.5255C52.9239 21.4234 52.6895 21.3213 52.4747 21.1936C52.2403 21.0915 51.9277 20.9383 51.791 20.683C51.6933 20.6574 51.5956 20.5809 51.498 20.4787C51.4003 20.4021 51.3222 20.3 51.2636 20.1979C51.1073 20.0702 50.9901 19.8915 50.9315 19.6872C50.8534 19.5085 50.7948 19.3043 50.7557 19.0745C50.658 18.6404 50.6776 18.2064 50.8143 17.7979C51.3026 16.4957 52.084 15.5 53.256 15.5C54.1545 15.5 54.8773 16.0362 55.4242 16.9298C55.4438 16.9553 55.4828 17.0064 55.5219 17.0319L55.6 17.134C55.6586 17.2106 55.6782 17.3128 55.6782 17.466L55.8149 17.7723C55.854 17.8745 55.8149 18.0021 55.7172 18.1298C55.6782 18.1809 55.6391 18.2064 55.5805 18.2064C55.5219 18.2064 55.4633 18.1553 55.4047 18.0277C55.307 18.0021 55.2484 17.9511 55.2289 17.8234L55.1117 17.5936L54.8968 17.3128C54.8187 17.2362 54.7406 17.134 54.682 17.0574L54.5062 16.9043C54.4085 16.8277 54.2913 16.7255 54.1741 16.6489C54.0373 16.5723 53.9006 16.5213 53.7639 16.4957C53.6467 16.4447 53.5295 16.4191 53.3927 16.4191H53.2169C53.0997 16.4702 52.9435 16.4957 52.8263 16.4957C52.7677 16.5213 52.6895 16.5213 52.6309 16.5468C52.5137 16.6745 52.3965 16.7766 52.2989 16.8787C52.2012 16.9809 52.1035 17.083 52.0059 17.2106C51.8105 17.4404 51.6543 17.7213 51.537 18.1043C51.4394 18.334 51.4003 18.5638 51.4589 18.7426C51.4784 18.8447 51.5175 18.9468 51.5566 19.0489C51.5761 19.1511 51.6152 19.2532 51.6347 19.3809L51.7129 19.483C51.7715 19.5085 51.8301 19.534 51.8691 19.6106L51.9082 19.6872L51.9668 19.7894C52.1426 19.9681 52.3575 20.1213 52.5723 20.2234C52.67 20.3 52.7872 20.3511 52.8849 20.4021C52.9825 20.4787 53.0997 20.5298 53.1974 20.6064C53.2951 20.6319 53.4123 20.683 53.5295 20.734C53.6271 20.8106 53.7053 20.9128 53.7639 21.0404C53.7639 21.0149 53.7834 21.0149 53.8029 21.0149C53.8615 20.9638 53.9201 20.9383 53.9592 20.9383C54.0178 20.9383 54.0764 20.9638 54.135 21.0149C54.1936 21.0915 54.2327 21.1426 54.2718 21.1681C54.2913 21.1936 54.2913 21.1936 54.3108 21.1936L54.3694 21.2702C54.4085 21.2447 54.4476 21.2702 54.4671 21.3468H54.6038C54.6624 21.3723 54.682 21.4234 54.7015 21.4489C54.8382 21.5255 54.975 21.6277 55.0922 21.7298C55.1898 21.8319 55.2875 21.9851 55.3461 22.1894V22.2149C55.5024 22.2404 55.6 22.317 55.6586 22.4191C55.6782 22.4957 55.7172 22.5468 55.7368 22.6234C55.7563 22.7 55.7954 22.7511 55.8149 22.8277C56.0884 23.1851 56.147 23.6191 56.147 24.1043L56.0884 24.5894C55.9126 25.6362 55.4633 26.1213 54.8382 26.7085C54.7796 26.8362 54.682 26.9128 54.5452 26.9383C54.389 27.1426 54.1936 27.2957 53.9787 27.3723C53.7834 27.4234 53.5685 27.4489 53.3537 27.4489ZM63.4047 27.2702C62.7601 27.2702 62.0959 27.2447 61.4513 27.1936C61.3537 27.1936 61.256 27.1681 61.1779 27.117C61.0802 27.066 61.0216 26.9638 61.002 26.7851C60.9825 26.7596 60.9825 26.683 60.9825 26.5553C60.9239 26.0702 60.8848 25.6362 60.8848 25.2532C60.8653 24.8191 60.8653 24.3851 60.8848 23.9511C60.9044 23.8745 60.9044 23.7468 60.9044 23.5681V23.2106C60.8067 23.083 60.7872 22.9298 60.8067 22.8021C60.8262 22.7255 60.8262 22.6745 60.8262 22.5979C60.8262 22.5213 60.8262 22.4702 60.8458 22.3936C60.8262 21.8574 60.8262 21.3213 60.8458 20.7851V19.9936C60.8458 19.7383 60.8458 19.483 60.8653 19.2021V18.8957C60.8262 18.8191 60.8067 18.717 60.8067 18.6404C60.8067 18.5894 60.8262 18.4872 60.8458 18.3596C60.8653 18.334 60.8653 18.283 60.8848 18.2319C60.8848 18.1809 60.8848 18.1298 60.9044 18.1043C60.9239 18.0277 60.9239 17.9255 60.9044 17.8489V17.7468C60.9044 17.6191 60.9044 17.517 60.8848 17.4404C60.8653 17.3638 60.9044 17.2617 60.963 17.1851C61.0411 16.4447 61.3146 16.266 61.8615 16.266C62.4085 16.1894 62.9554 16.1383 63.5023 16.1383H64.8111C64.8892 16.1383 64.9674 16.1383 65.065 16.1638C65.1432 16.1638 65.2408 16.1894 65.3776 16.2149L65.5338 16.266L65.6901 16.317C65.905 16.3681 65.9831 16.5213 65.944 16.7511C65.9245 16.9043 65.8854 16.9809 65.8268 17.0064C65.7096 17.1085 65.4362 17.134 65.2994 17.134C65.2408 17.1596 65.1432 17.1596 65.0064 17.1596C64.7916 17.1851 64.5962 17.1851 64.3814 17.1851C64.1665 17.2106 63.9712 17.2106 63.7563 17.2106H63.1312C62.9163 17.2106 62.721 17.2106 62.5061 17.2362H61.9201C61.842 17.2362 61.7639 17.2362 61.7053 17.2617V17.9511C61.7053 18.0277 61.7053 18.1043 61.6857 18.1809C61.6662 18.5128 61.6662 18.8191 61.6857 19.1511C61.7053 19.3298 61.7053 19.483 61.7053 19.6617L61.6662 20.1723C61.6662 20.2745 61.6662 20.3511 61.6857 20.3766C61.7443 20.4532 61.7639 20.5809 61.7639 20.7085L61.7053 21.0915C61.6857 21.2702 61.7053 21.3979 61.7639 21.4489C61.8225 21.5255 61.9006 21.5511 61.9983 21.5511H62.0764C62.1936 21.5255 62.3108 21.5255 62.428 21.5C62.5452 21.4745 62.6624 21.4745 62.7796 21.4489C62.8773 21.4234 62.9945 21.4234 63.1117 21.3979H63.4633C63.7954 21.3979 64.0884 21.4234 64.3423 21.5C64.4204 21.5255 64.479 21.6277 64.4986 21.8064C64.5181 21.9851 64.479 22.0872 64.4009 22.1383C64.0493 22.3936 63.4828 22.4191 63.0921 22.4191H61.8615C61.842 22.4447 61.8029 22.4447 61.7834 22.4447C61.7639 22.4702 61.7248 22.4702 61.7053 22.4957C61.7053 23.7723 61.7053 24.9979 61.6662 26.2745H62.6038C62.7405 26.3 62.8968 26.3 63.0531 26.3H63.5023C63.7758 26.2489 64.0493 26.1979 64.3423 26.1979H64.6158C64.7916 26.1979 64.9869 26.2234 65.1627 26.2745L65.7292 26.4021C65.8268 26.4532 65.8464 26.5809 65.8268 26.7596C65.7878 27.066 65.5338 27.0915 65.3385 27.0915C64.6939 27.2447 64.0493 27.2702 63.4047 27.2702ZM61.5295 17.2362L61.549 17.2106H61.5295V17.2362ZM70.6819 27.3979C70.6233 27.3723 70.5842 27.3213 70.5647 27.2447C70.5452 27.1681 70.5452 27.066 70.5842 26.9638C70.6819 26.2745 70.9749 25.2277 71.5023 23.8745L73.3776 18.9213L73.6706 17.9511C73.7682 17.6191 73.8854 17.3128 74.0222 17.0319C74.0612 16.8021 74.1394 16.6489 74.2761 16.5213C74.3933 16.3681 74.5105 16.2915 74.6082 16.2915C74.823 16.2915 74.9207 16.4447 74.9402 16.7511C74.9598 16.8787 74.9988 17.0319 75.0379 17.1596C75.116 17.4149 75.1746 17.6957 75.2137 17.9766L75.2918 18.3851C75.3309 18.4106 75.3309 18.4617 75.3114 18.4872C75.3309 18.5894 75.37 18.6915 75.409 18.8191L75.5262 19.2532C75.6044 19.6106 75.6825 19.9426 75.7802 20.2234L75.8974 20.7085C75.956 21.0149 76.0341 21.3468 76.0732 21.6532L76.1318 22.0106C76.1513 22.0362 76.1513 22.0872 76.1513 22.1383C76.1513 22.2149 76.1904 22.317 76.2099 22.3936C76.2099 22.4447 76.2099 22.4957 76.2295 22.5213C76.4053 22.9043 76.5225 23.3383 76.6006 23.8234C76.6397 24.0532 76.6983 24.283 76.7569 24.5128L76.9327 25.2021C76.9522 25.3298 76.9913 25.4319 77.0303 25.5596C77.0499 25.6872 77.0889 25.7894 77.1085 25.917C77.128 26.0447 77.1671 26.1723 77.1866 26.3C77.2061 26.4277 77.2452 26.5298 77.2647 26.6574C77.2843 26.7851 77.3038 26.9128 77.3038 26.9894C77.3038 27.117 77.2452 27.2191 77.128 27.2702C77.1085 27.2957 77.0889 27.2957 77.0303 27.2957C76.9522 27.2957 76.8936 27.2447 76.8741 27.1426C76.835 27.0404 76.835 26.9383 76.7959 26.8362C76.6201 26.4787 76.5029 26.0957 76.4248 25.6617C76.3662 25.483 76.3271 25.2787 76.2881 25.0745C76.2295 24.8702 76.1904 24.666 76.1318 24.4617C76.0146 24.3851 75.956 24.283 75.9755 24.1553C75.9755 24.0277 75.9365 23.9255 75.8388 23.8489L74.9207 23.9255L74.0026 24.0021C73.3971 24.0532 72.7915 24.0787 72.1469 24.0787C72.1079 24.1043 72.0883 24.1298 72.0883 24.1553C72.0688 24.3085 72.0102 24.5128 71.9125 24.7936C71.8539 24.9213 71.8149 25.0745 71.7758 25.2277C71.7172 25.3809 71.6781 25.534 71.6195 25.6872C71.5414 25.917 71.4633 26.1723 71.3656 26.4277C71.2679 26.7085 71.1507 26.9383 71.014 27.1426C70.9554 27.3213 70.8577 27.3979 70.6819 27.3979ZM73.0455 23.1085H73.4166C73.4752 23.1085 73.5534 23.1085 73.651 23.083C73.905 23.0574 74.1589 23.0064 74.4128 22.9809C74.6668 22.9553 74.9207 22.9553 75.1746 22.9553C75.2918 22.9553 75.409 22.9809 75.5067 23.0064C75.077 21.5255 74.6472 20.0191 74.491 18.4617C74.4714 18.3851 74.4324 18.3596 74.3738 18.3596C74.3542 18.3851 74.3347 18.3851 74.3152 18.3596L73.9636 19.4319C73.905 19.6617 73.8268 19.8915 73.7487 20.1213L73.5143 20.7851L73.2994 21.4234C73.2408 21.6277 73.1627 21.8064 73.1041 21.9851C73.0455 22.1638 72.9869 22.2915 72.9478 22.3936C72.9087 22.5213 72.8697 22.5979 72.8501 22.6489C72.7915 22.8277 72.772 22.9298 72.7915 22.9809C72.8111 23.0319 72.8892 23.083 73.0455 23.1085ZM89.5426 16.5723C89.6598 16.7255 89.6988 16.8277 89.6598 16.9043C89.6012 17.0064 89.523 17.0574 89.4058 17.083C89.3668 17.1085 89.3082 17.1085 89.23 17.1085H89.0542L86.8665 17.2617C86.7688 17.2617 86.6907 17.2106 86.6321 17.134L86.6711 17.083H86.6516C86.6321 17.083 86.6321 17.1085 86.6321 17.134C86.3195 17.1596 86.1633 17.3638 86.1828 17.7979C86.2414 18.2574 86.2414 18.7426 86.2023 19.2277C86.1828 19.4574 86.1633 19.7128 86.1633 19.9426C86.1437 20.1979 86.1437 20.4532 86.1633 20.683C86.1828 21.1681 86.1828 21.6277 86.2023 22.0872C86.2219 22.5468 86.2219 23.0064 86.2414 23.466C86.2609 23.9255 86.2609 24.3851 86.2414 24.8447C86.2219 25.3043 86.1828 25.7638 86.1633 26.2489V26.5553C86.1437 26.6319 86.1437 26.7596 86.1437 26.8872C86.1437 27.1681 85.9875 27.1936 85.8117 27.1936L85.6359 27.117C85.5773 27.0915 85.5382 27.0149 85.5187 26.8617C85.5187 26.4277 85.5187 25.9936 85.4991 25.5596L85.4405 24.2574C85.421 23.8234 85.4014 23.3638 85.421 22.9298C85.421 22.4957 85.4405 22.0617 85.46 21.6277C85.4796 21.5511 85.4796 21.4489 85.4991 21.3468V21.0915C85.4796 21.0149 85.4796 20.9128 85.4796 20.8106V18.9723C85.4796 18.4617 85.4991 17.9511 85.5187 17.4404C85.3428 17.3128 85.167 17.2617 84.9522 17.2617C84.7178 17.2617 84.5029 17.2872 84.3076 17.3383L83.3114 17.4149C83.1356 17.4404 82.9793 17.4404 82.8035 17.4404H82.2956C82.1198 17.4404 81.9831 17.3383 81.9245 17.134C81.8659 16.9043 81.9245 16.7511 82.1198 16.6745C82.2175 16.5979 82.3347 16.5468 82.4714 16.5468H82.6667C82.7058 16.5723 82.7644 16.5723 82.8621 16.5723C83.0184 16.4957 83.1942 16.4447 83.37 16.4447H83.5262C83.5848 16.4447 83.6239 16.4447 83.6825 16.4702C83.7411 16.4957 83.7802 16.4957 83.8388 16.4957H83.995C84.0536 16.3936 84.1318 16.3426 84.2294 16.3426H84.3271C84.3466 16.3681 84.3662 16.3681 84.4052 16.3681H86.6907C86.9446 16.3681 87.2181 16.3681 87.472 16.3426L88.2338 16.266H88.4682C88.8784 16.266 89.1714 16.2915 89.5426 16.5723ZM105.328 27.4489C104.957 27.4489 104.761 27.4234 104.41 27.2702C104.019 27.2191 103.628 26.8872 103.355 26.5298C102.769 26.0957 102.3 24.9723 102.163 24.1553C102.085 23.8234 102.026 23.5426 102.007 23.3128C101.948 22.8787 101.968 22.4957 102.066 22.1894C102.066 22.0617 102.085 22.0106 102.144 21.9851C102.163 21.934 102.202 21.883 102.3 21.8319C102.378 21.8064 102.437 21.7809 102.495 21.7809C102.554 21.7809 102.593 21.8064 102.612 21.8319C102.71 21.9596 102.71 22.1383 102.612 22.3426C102.612 22.3936 102.612 22.4191 102.593 22.4447C102.554 22.9809 102.593 23.466 102.71 23.9255C102.808 24.4106 102.964 24.8447 103.179 25.2787C103.277 25.3553 103.355 25.4574 103.433 25.5596C103.511 25.6872 103.589 25.7894 103.648 25.917L104.234 26.4277C104.449 26.4277 104.624 26.4532 104.781 26.5298C104.937 26.6064 105.132 26.6319 105.347 26.6319C105.562 26.6319 105.894 26.5298 106.089 26.3766L106.285 26.2745L106.461 26.1979L106.617 25.9936L106.793 25.7894L107.105 25.3809C107.164 25.2021 107.203 25.0489 107.222 24.9213C107.242 24.7936 107.281 24.666 107.34 24.5128C107.359 24.3851 107.359 24.2574 107.359 24.1298L107.32 23.7723C107.301 23.5426 107.261 23.3128 107.164 23.0574L107.008 22.8277C106.656 22.3681 106.226 22.1128 105.796 21.8574C105.582 21.7553 105.347 21.6532 105.132 21.5255C104.898 21.4234 104.664 21.3213 104.449 21.1936C104.214 21.0915 103.902 20.9383 103.765 20.683C103.667 20.6574 103.57 20.5809 103.472 20.4787C103.374 20.4021 103.296 20.3 103.238 20.1979C103.081 20.0702 102.964 19.8915 102.905 19.6872C102.827 19.5085 102.769 19.3043 102.73 19.0745C102.632 18.6404 102.652 18.2064 102.788 17.7979C103.277 16.4957 104.058 15.5 105.23 15.5C106.129 15.5 106.851 16.0362 107.398 16.9298C107.418 16.9553 107.457 17.0064 107.496 17.0319L107.574 17.134C107.633 17.2106 107.652 17.3128 107.652 17.466L107.789 17.7723C107.828 17.8745 107.789 18.0021 107.691 18.1298C107.652 18.1809 107.613 18.2064 107.554 18.2064C107.496 18.2064 107.437 18.1553 107.379 18.0277C107.281 18.0021 107.222 17.9511 107.203 17.8234L107.086 17.5936L106.871 17.3128C106.793 17.2362 106.715 17.134 106.656 17.0574L106.48 16.9043C106.382 16.8277 106.265 16.7255 106.148 16.6489C106.011 16.5723 105.875 16.5213 105.738 16.4957C105.621 16.4447 105.503 16.4191 105.367 16.4191H105.191C105.074 16.4702 104.917 16.4957 104.8 16.4957C104.742 16.5213 104.664 16.5213 104.605 16.5468C104.488 16.6745 104.371 16.7766 104.273 16.8787C104.175 16.9809 104.078 17.083 103.98 17.2106C103.785 17.4404 103.628 17.7213 103.511 18.1043C103.413 18.334 103.374 18.5638 103.433 18.7426C103.452 18.8447 103.492 18.9468 103.531 19.0489C103.55 19.1511 103.589 19.2532 103.609 19.3809L103.687 19.483C103.745 19.5085 103.804 19.534 103.843 19.6106L103.882 19.6872L103.941 19.7894C104.117 19.9681 104.331 20.1213 104.546 20.2234C104.644 20.3 104.761 20.3511 104.859 20.4021C104.957 20.4787 105.074 20.5298 105.171 20.6064C105.269 20.6319 105.386 20.683 105.503 20.734C105.601 20.8106 105.679 20.9128 105.738 21.0404C105.738 21.0149 105.757 21.0149 105.777 21.0149C105.836 20.9638 105.894 20.9383 105.933 20.9383C105.992 20.9383 106.05 20.9638 106.109 21.0149C106.168 21.0915 106.207 21.1426 106.246 21.1681C106.265 21.1936 106.265 21.1936 106.285 21.1936L106.343 21.2702C106.382 21.2447 106.422 21.2702 106.441 21.3468H106.578C106.636 21.3723 106.656 21.4234 106.675 21.4489C106.812 21.5255 106.949 21.6277 107.066 21.7298C107.164 21.8319 107.261 21.9851 107.32 22.1894V22.2149C107.476 22.2404 107.574 22.317 107.633 22.4191C107.652 22.4957 107.691 22.5468 107.711 22.6234C107.73 22.7 107.769 22.7511 107.789 22.8277C108.062 23.1851 108.121 23.6191 108.121 24.1043L108.062 24.5894C107.887 25.6362 107.437 26.1213 106.812 26.7085C106.754 26.8362 106.656 26.9128 106.519 26.9383C106.363 27.1426 106.168 27.2957 105.953 27.3723C105.757 27.4234 105.543 27.4489 105.328 27.4489ZM113.933 27.1426C113.777 27.1426 113.503 26.9638 113.503 26.734V26.4787C113.503 26.4021 113.503 26.3255 113.523 26.2489C113.445 25.8149 113.406 25.3553 113.406 24.8957C113.386 24.666 113.386 24.4617 113.386 24.2319V21.6277C113.367 21.2957 113.367 20.9894 113.347 20.6574L113.289 19.7128C113.269 19.483 113.269 19.2787 113.269 19.0489C113.269 18.3851 113.289 17.7723 113.367 17.1085C113.308 17.0574 113.308 17.0064 113.367 16.9809C113.367 16.7255 113.445 16.4957 113.601 16.266C113.66 16.1638 113.738 16.1128 113.816 16.1128C113.953 16.1128 114.089 16.2404 114.187 16.4702C114.207 16.5468 114.207 16.5979 114.226 16.6489C114.246 16.7 114.246 16.7511 114.265 16.7766V17.8234C114.324 17.9 114.324 17.9766 114.265 18.0532C114.246 18.1809 114.246 18.334 114.265 18.4617C114.265 18.6404 114.246 18.7681 114.187 18.8957C114.168 18.9723 114.168 19.0489 114.187 19.1255C114.187 19.2021 114.187 19.3043 114.207 19.3809C114.226 19.5085 114.187 19.6617 114.129 19.8404C114.187 20.5298 114.207 21.1936 114.187 21.883C114.168 22.5723 114.168 23.2362 114.187 23.9255V24.1553C114.187 24.2319 114.187 24.334 114.207 24.4106C114.226 24.4872 114.226 24.5638 114.226 24.6404C114.207 24.717 114.207 24.7936 114.187 24.8702C114.246 25.2021 114.265 25.534 114.246 25.866C114.226 26.0447 114.226 26.1979 114.207 26.3511C114.187 26.5043 114.187 26.6574 114.168 26.8362C114.148 27.0404 114.07 27.1426 113.933 27.1426ZM125.684 27.5C125.469 27.5 125.352 27.3723 125.332 27.0915C125.312 26.9894 125.312 26.8872 125.293 26.7851C125.273 26.683 125.273 26.5809 125.254 26.4787L125.137 25.866C125.137 25.7638 125.137 25.6872 125.156 25.6362C125.176 25.5596 125.137 25.5085 125.078 25.483C125.059 25.4574 125.039 25.4574 125.019 25.4574C124.98 25.4574 124.941 25.483 124.922 25.534L124.824 25.6617C124.766 25.7383 124.668 25.8404 124.59 25.8404C124.062 26.5298 123.457 26.8872 122.793 26.8872C122.304 26.8872 121.621 26.5809 121.21 26.2234C120.937 26.0447 120.683 25.8404 120.468 25.5596C120.253 25.3298 120.058 25.1 119.882 24.8191C119.863 24.7936 119.824 24.717 119.726 24.5894C119.511 24.2319 119.335 23.8234 119.198 23.3383C119.062 22.8532 118.984 22.3936 119.003 21.934V21.6277C119.003 21.4489 119.003 21.3213 118.984 21.2447C118.964 21.1426 119.003 21.0149 119.062 20.8872C119.062 20.5298 119.12 20.1979 119.257 19.917C119.257 19.8915 119.257 19.8915 119.277 19.866C119.413 19.4319 119.589 19.0489 119.804 18.717C119.999 18.3851 120.214 18.0532 120.429 17.7213L120.527 17.5681C120.546 17.5681 120.566 17.5426 120.585 17.517C120.683 17.3128 120.8 17.2106 120.976 17.1851V17.1085C120.996 17.0319 121.035 17.0064 121.132 17.0064C121.23 16.8787 121.367 16.7511 121.542 16.6489L122.07 16.4191C122.422 16.317 122.773 16.2404 123.125 16.2404C123.672 16.2404 124.18 16.4191 124.668 16.8021L124.902 16.9553C125.078 17.083 125.234 17.2106 125.352 17.3638C125.41 17.4404 125.41 17.5681 125.352 17.7213C125.312 17.8745 125.234 17.9511 125.098 17.9511C125 17.9511 124.922 17.9255 124.863 17.8489L124.668 17.7723C124.609 17.7468 124.531 17.7468 124.473 17.7213L124.297 17.6447C124.238 17.6191 124.18 17.5681 124.121 17.5426C123.828 17.4404 123.515 17.3638 123.222 17.3638C122.285 17.3638 121.308 18.0277 120.722 18.9979C120.683 19.2277 120.566 19.4064 120.39 19.5085C120.37 19.534 120.37 19.534 120.37 19.5596L120.312 19.6362C120.331 19.8149 120.331 19.9426 120.273 20.0191L120.195 20.1723C120.156 20.2489 120.117 20.3 120.097 20.3766C120.097 20.5043 120.058 20.6574 119.98 20.8106C119.941 21.1681 119.921 21.5255 119.921 21.883C119.902 22.2149 119.941 22.5979 120.019 23.0064C120.117 23.2106 120.195 23.3894 120.195 23.6191L120.234 23.6702C120.234 23.6957 120.253 23.6957 120.273 23.7213C120.41 23.7979 120.449 23.9255 120.429 24.0532C120.488 24.1298 120.527 24.2319 120.585 24.3085L120.703 24.5638C120.722 24.5894 120.722 24.5894 120.742 24.5894L120.859 24.7681C121.093 25.0489 121.347 25.3298 121.64 25.5596C121.914 25.8149 122.207 26.0191 122.519 26.1468H122.695C122.715 26.1723 122.754 26.1723 122.793 26.1723C123.183 26.1723 123.515 25.9681 123.847 25.7383L124.16 25.5085C124.18 25.3808 124.238 25.3043 124.316 25.3043C124.375 25.3043 124.433 25.2532 124.492 25.1766C124.512 25.1255 124.57 25.0489 124.629 24.9723C124.668 24.8957 124.726 24.8702 124.805 24.8702C124.863 24.8702 124.902 24.8957 124.961 24.9213C124.98 24.9468 125 24.9468 125.039 24.9468C125.078 24.9468 125.117 24.8702 125.137 24.7426C125.156 24.666 125.156 24.5638 125.176 24.4872C125.176 24.334 125.195 24.1298 125.234 23.9766C125.234 23.9 125.234 23.7979 125.254 23.7213L125.293 23.3638C125.293 23.134 125.312 22.8787 125.352 22.6489C125.352 22.5213 125.352 22.4191 125.371 22.2915C125.391 22.1638 125.371 22.0617 125.352 21.934C125.312 21.8574 125.215 21.8319 125.078 21.8319H122.871C122.773 21.8064 122.695 21.8064 122.617 21.8064C122.519 21.8064 122.441 21.8064 122.343 21.7809C122.187 21.7553 122.011 21.7043 121.835 21.6277C121.738 21.6021 121.679 21.5511 121.66 21.4489C121.64 21.3723 121.66 21.2957 121.718 21.1936L121.757 21.1426C121.777 21.1426 121.796 21.117 121.816 21.0915C121.933 21.0149 122.031 20.9383 122.089 20.9128C122.148 20.8872 122.265 20.8872 122.402 20.8872C122.656 20.9128 122.91 20.9128 123.164 20.9128C123.418 20.9383 123.672 20.9383 123.926 20.9383C124.18 20.9638 124.433 20.9638 124.687 20.9638C124.941 20.9638 125.176 20.9638 125.43 20.9894C125.801 21.0149 125.996 21.2702 126.016 21.7553L126.035 22.6745C126.016 22.8532 126.016 23.0064 126.016 23.1851V23.6957C126.016 24.0532 125.996 24.4106 125.957 24.7426C125.977 24.7681 125.957 24.8191 125.938 24.8957L125.996 25.4319C125.996 25.6106 125.996 25.7638 125.977 25.9426C125.957 26.1213 125.938 26.3 125.938 26.4787L125.898 26.9894C125.918 27.117 125.918 27.2447 125.898 27.3213C125.879 27.3979 125.801 27.4745 125.684 27.5ZM131.593 27.2957C131.496 27.2957 131.437 27.2447 131.418 27.1681C131.379 27.066 131.359 26.9638 131.359 26.8617V26.5808C131.34 26.4787 131.34 26.3766 131.32 26.3C131.3 26.0957 131.3 25.917 131.34 25.7638C131.261 25.0745 131.242 24.4362 131.242 23.7213C131.242 23.4915 131.242 23.2617 131.222 23.0319C131.203 22.5468 131.203 22.0362 131.203 21.5511V17.1596C131.203 16.9809 131.222 16.8021 131.261 16.6234C131.281 16.4447 131.379 16.3681 131.554 16.3681C131.73 16.3681 131.828 16.4447 131.887 16.6234C131.926 16.8021 131.945 16.9809 131.945 17.1596C131.926 17.4149 131.926 17.6702 131.926 17.9255V20.1979C131.984 20.4021 132.023 20.5809 132.004 20.7596C131.984 20.9638 131.984 21.1681 132.004 21.3468H134.484C135.09 21.2957 135.696 21.2447 136.301 21.2447H136.653C136.711 20.6319 136.731 20.0191 136.711 19.4064C136.672 18.8191 136.692 18.2064 136.75 17.5681L136.809 17.1851C136.828 17.1085 136.828 17.0574 136.828 16.9809C136.828 16.9298 136.828 16.8787 136.848 16.8021C136.887 16.5213 137.024 16.3426 137.239 16.317C137.395 16.317 137.473 16.3681 137.493 16.4702C137.512 16.5468 137.512 16.5979 137.512 16.6489C137.512 16.7 137.512 16.7511 137.532 16.8277C137.551 16.8532 137.551 16.8787 137.551 16.9298C137.532 16.9553 137.532 16.9809 137.532 17.0319C137.571 17.4404 137.551 17.8745 137.493 18.3085L137.434 18.9213C137.415 19.1255 137.395 19.3298 137.395 19.5596V21.2447C137.375 21.4234 137.375 21.6021 137.375 21.7809V22.2915C137.375 23.7723 137.375 25.2277 137.336 26.683C137.336 26.9383 137.258 27.066 137.082 27.0915C137.024 27.0915 136.965 27.066 136.907 26.9894C136.829 26.7596 136.809 26.5808 136.809 26.3511C136.809 26.2234 136.809 26.0957 136.789 25.9681C136.77 25.8404 136.77 25.7383 136.77 25.6106C136.77 25.483 136.77 25.3809 136.75 25.2532C136.731 25.2277 136.711 25.1766 136.711 25.1C136.692 24.9468 136.672 24.7936 136.672 24.6404C136.653 24.4872 136.653 24.334 136.633 24.1809C136.614 24.0277 136.614 23.8745 136.633 23.7213C136.633 23.5681 136.653 23.4149 136.672 23.2362C136.653 23.2106 136.653 23.1851 136.653 23.1596C136.594 23.0319 136.555 22.9298 136.575 22.8277C136.594 22.7511 136.594 22.6489 136.594 22.4957C136.614 22.2149 136.535 22.0872 136.379 22.0872H136.282C136.203 22.1128 136.164 22.1383 136.164 22.1383C136.008 22.1894 135.852 22.2149 135.696 22.2149H134.777C134.465 22.2149 134.152 22.2149 133.859 22.2404C133.566 22.266 133.254 22.266 132.941 22.266C132.629 22.2915 132.316 22.2915 132.004 22.317L131.965 22.5468L131.926 22.7255C131.945 23.0574 131.945 23.4149 131.965 23.7468V24.7681C131.945 25.1 131.945 25.4574 131.926 25.7894L131.867 26.8106C131.867 26.9128 131.847 27.0149 131.808 27.117C131.769 27.2447 131.691 27.2957 131.593 27.2957ZM131.906 22.3426V22.2915C131.887 22.317 131.867 22.317 131.847 22.317C131.867 22.317 131.887 22.317 131.906 22.3426ZM149.868 16.5723C149.985 16.7255 150.024 16.8277 149.985 16.9043C149.927 17.0064 149.849 17.0574 149.731 17.083C149.692 17.1085 149.634 17.1085 149.556 17.1085H149.38L147.192 17.2617C147.094 17.2617 147.016 17.2106 146.958 17.134L146.997 17.083H146.977C146.958 17.083 146.958 17.1085 146.958 17.134C146.645 17.1596 146.489 17.3638 146.508 17.7979C146.567 18.2574 146.567 18.7426 146.528 19.2277C146.508 19.4574 146.489 19.7128 146.489 19.9426C146.469 20.1979 146.469 20.4532 146.489 20.683C146.508 21.1681 146.508 21.6277 146.528 22.0872C146.547 22.5468 146.547 23.0064 146.567 23.466C146.587 23.9255 146.587 24.3851 146.567 24.8447C146.547 25.3043 146.508 25.7638 146.489 26.2489V26.5553C146.469 26.6319 146.469 26.7596 146.469 26.8872C146.469 27.1681 146.313 27.1936 146.137 27.1936L145.961 27.117C145.903 27.0915 145.864 27.0149 145.844 26.8617C145.844 26.4277 145.844 25.9936 145.825 25.5596L145.766 24.2574C145.747 23.8234 145.727 23.3638 145.747 22.9298C145.747 22.4957 145.766 22.0617 145.786 21.6277C145.805 21.5511 145.805 21.4489 145.825 21.3468V21.0915C145.805 21.0149 145.805 20.9128 145.805 20.8106V18.9723C145.805 18.4617 145.825 17.9511 145.844 17.4404C145.668 17.3128 145.493 17.2617 145.278 17.2617C145.043 17.2617 144.828 17.2872 144.633 17.3383L143.637 17.4149C143.461 17.4404 143.305 17.4404 143.129 17.4404H142.621C142.445 17.4404 142.309 17.3383 142.25 17.134C142.191 16.9043 142.25 16.7511 142.445 16.6745C142.543 16.5979 142.66 16.5468 142.797 16.5468H142.992C143.031 16.5723 143.09 16.5723 143.188 16.5723C143.344 16.4957 143.52 16.4447 143.696 16.4447H143.852C143.91 16.4447 143.949 16.4447 144.008 16.4702C144.067 16.4957 144.106 16.4957 144.164 16.4957H144.321C144.379 16.3936 144.457 16.3426 144.555 16.3426H144.653C144.672 16.3681 144.692 16.3681 144.731 16.3681H147.016C147.27 16.3681 147.544 16.3681 147.798 16.3426L148.559 16.266H148.794C149.204 16.266 149.497 16.2915 149.868 16.5723Z" fill="#111111"/>
</g>
<defs>
<clipPath id="clip0_1_2">
<rect width="150" height="45" fill="white"/>
</clipPath>
<clipPath id="clip1_1_2">
<rect width="45" height="45" fill="white"/>
</clipPath>
</defs>
</svg>
